<svg xmlns="http://www.w3.org/2000/svg"
     viewBox="0 0 24 24"
     fill="none">
  <g fill="currentColor">

    <!-- === TRAILER (unchanged, left) === -->
    <!-- Wheel baseline: y = 17 -->
    <g transform="translate(0 8) scale(0.009)">
      <g transform="translate(0 64)">
        <path d="M624,320H544V80a16,16,0,0,0-16-16H16A16,16,0,0,0,0,80V368a16,16,0,0,0,16,16H65.61c7.83-54.21,54-96,110.39-96s102.56,41.79,110.39,96H624a16,16,0,0,0,16-16V336A16,16,0,0,0,624,320Zm-448,0a80,80,0,1,0,80,80A80,80,0,0,0,176,320Zm0,112a32,32,0,1,1,32-32A32,32,0,0,1,176,432Z"/>
      </g>
    </g>

    <!-- === CAR (right, resized to match trailer) === -->
    <!-- Target: similar visual width to trailer, wheel baseline aligned to y=17 -->
    <g transform="translate(7.8 12.9) scale(0.30)">
      <g transform="translate(-370 -284)">
        <path d="M388.457,283.742a3.15,3.15,0,1,1,3.149-3.149A3.153,3.153,0,0,1,388.457,283.742Zm0-4.3a1.15,1.15,0,1,0,1.149,1.15A1.151,1.151,0,0,0,388.457,279.443Z"/>
        <path d="M383.267,276.674h-1.375a.5.5,0,0,1,0-1h1.375a.5.5,0,0,1,0,1Z"/>
        <path d="M371.2,283.742a3.15,3.15,0,1,1,3.15-3.149A3.153,3.153,0,0,1,371.2,283.742Zm0-4.3a1.15,1.15,0,1,0,1.15,1.15A1.151,1.151,0,0,0,371.2,279.443Z"/>
        <path d="M374.017,276.674h-1.375a.5.5,0,0,1,0-1h1.375a.5.5,0,0,1,0,1Z"/>
        <path d="M386.308,281.593H373.35a1,1,0,0,1,0-2h12.958a1,1,0,0,1,0,2Z"/>
        <path d="M390.723,281.593h-.116a1,1,0,0,1,0-2h.116a3.172,3.172,0,0,0,3.169-3.168,1.067,1.067,0,0,1,.009-.139c-.367-.306-2.253-1.361-10.8-1.361H365.85a1,1,0,0,1,0-2H383.1c10.066,0,12.022,1.4,12.619,2.452a1.63,1.63,0,0,1,.17,1.227A5.176,5.176,0,0,1,390.723,281.593Z"/>
        <path d="M369.053,281.59h-.043a5.156,5.156,0,0,1-4.952-5.164v-2.5a1,1,0,1,1,2,0v2.5a3.2,3.2,0,0,0,3.036,3.166,1,1,0,0,1-.041,2Z"/>
        <path d="M365.058,276.926a1,1,0,0,1-1-1v-2.5a5.174,5.174,0,0,1,5.169-5.168h12.29a1,1,0,0,1,.707.293l4.434,4.435a1,1,0,0,1-1.414,1.414l-4.141-4.142H369.227a3.172,3.172,0,0,0-3.169,3.168v2.5A1,1,0,0,1,365.058,276.926Z"/>
        <path d="M367.9,281.377h-2.847a1,1,0,0,1,0-2H367.9a1,1,0,0,1,0,2Z"/>
        <path d="M394.942,281.593h-4.1a1,1,0,0,1,0-2h4.1a1,1,0,0,1,0,2Z"/>
      </g>
    </g>

  </g>
</svg>